<?xml version="1.0" encoding="utf-8"?>
<!-- Generator: Adobe Illustrator 21.0.2, SVG Export Plug-In . SVG Version: 6.00 Build 0)  -->
<svg version="1.1" id="Calque_1" xmlns="http://www.w3.org/2000/svg" xmlns:xlink="http://www.w3.org/1999/xlink" x="0px" y="0px"
	 viewBox="0 0 841.9 595.3" style="enable-background:new 0 0 841.9 595.3;" xml:space="preserve">
<style type="text/css">
	.st0{fill:#127EA4;}
	.st1{fill:#1E6A8E;}
	.st2{fill:#FFFFFF;}
</style>
<g>
	<circle class="st0" cx="411.5" cy="299.2" r="203.5"/>
	<path class="st1" d="M212.6,343.2c13.6,67.2,64.6,122.4,124.9,145.5l143.8-108.2l30.2-110.8l27.9-52.5l-185.4,0L212.6,343.2z"/>
	<path class="st2" d="M354,217.4l-49,140.3c-4.2-1.8-9-2.9-14.1-2.9c-15.4,0-27.9,9.3-27.9,20.7c0,11.4,12.5,20.7,27.9,20.7
		c13,0,23.9-6.6,27-15.6l56.7-163.2H354z"/>
	<polygon class="st2" points="408.5,217.4 351.5,380.6 372.4,380.6 429,217.4 	"/>
	<polygon class="st2" points="462.9,217.4 405.9,380.6 426.8,380.6 483.5,217.4 	"/>
	<path class="st2" d="M543.9,217.7c-1.6-0.2-3.3-0.3-5-0.3c-13.6,0-24.9,7.2-27.4,16.8h0l-51.2,146.4h20.9l43.3-124.8
		c4.2,1.9,9.1,3,14.3,3c15.4,0,27.9-9.3,27.9-20.7C566.8,227.9,556.9,219.5,543.9,217.7z"/>
</g>
<g>
</g>
<g>
</g>
<g>
</g>
<g>
</g>
<g>
</g>
<g>
</g>
</svg>
